<?xml version="1.0" standalone="no"?>
<!DOCTYPE svg PUBLIC "-//W3C//DTD SVG 20010904//EN"
 "http://www.w3.org/TR/2001/REC-SVG-20010904/DTD/svg10.dtd">
<svg version="1.0" xmlns="http://www.w3.org/2000/svg"
 width="1024.000000pt" height="1024.000000pt" viewBox="0 0 1024.000000 1024.000000"
 preserveAspectRatio="xMidYMid meet">

<g transform="translate(0.000000,1024.000000) scale(0.100000,-0.100000)"
fill="#EEEEEE" stroke="none">
<path d="M6505 9144 c-33 -8 -112 -31 -175 -51 l-115 -38 -370 0 c-328 0 -377
-2 -435 -18 -189 -54 -298 -93 -416 -151 -73 -35 -142 -67 -155 -71 -13 -4
-35 -16 -49 -25 -14 -9 -58 -37 -99 -61 -227 -135 -377 -254 -487 -384 -233
-278 -193 -588 115 -895 95 -95 213 -194 261 -220 13 -7 57 -37 97 -66 39 -30
74 -54 76 -54 7 0 113 -59 426 -238 174 -100 215 -128 280 -192 89 -89 91 -92
126 -159 51 -102 43 -210 -20 -273 -73 -73 -302 -145 -491 -155 -109 -5 -130
-3 -225 21 -72 19 -128 41 -184 73 -141 82 -277 179 -370 263 -49 45 -112 100
-140 122 -47 38 -77 64 -246 214 -36 33 -94 79 -130 103 -35 25 -90 63 -122
85 -80 56 -103 71 -172 107 -32 17 -75 41 -95 53 -19 12 -64 33 -100 45 -36
13 -87 34 -115 46 -77 35 -235 65 -374 71 -186 9 -343 -17 -541 -88 -131 -46
-312 -134 -383 -184 -26 -19 -50 -34 -53 -34 -4 0 -21 -12 -38 -27 -18 -16
-47 -39 -66 -53 -52 -38 -174 -149 -185 -168 -5 -10 -43 -61 -82 -114 -40 -53
-73 -99 -73 -102 0 -3 -13 -34 -29 -68 -93 -205 -94 -445 0 -682 22 -56 61
-132 87 -171 71 -106 152 -204 173 -210 20 -7 124 -107 152 -147 16 -22 16
-22 16 29 1 60 8 83 26 83 29 0 69 -82 80 -161 3 -26 19 -67 34 -90 22 -34 30
-61 35 -119 27 -315 69 -459 164 -561 69 -75 137 -128 272 -209 114 -69 330
-183 370 -195 14 -4 79 -34 145 -65 100 -49 293 -132 420 -183 62 -24 423
-211 502 -259 46 -28 107 -71 137 -97 29 -25 66 -55 82 -66 55 -38 230 -220
276 -287 141 -203 223 -458 254 -783 9 -97 23 -116 25 -35 6 233 19 378 44
504 24 122 87 321 122 386 37 68 107 185 135 225 16 22 40 58 55 80 63 97 292
332 406 418 43 33 86 66 95 76 28 27 80 63 197 135 61 37 148 92 195 121 47
30 103 64 125 76 89 46 193 106 248 144 32 22 72 47 87 56 82 46 247 179 317
257 173 190 223 318 223 568 0 153 -15 234 -67 368 l-27 68 23 42 c61 107 90
196 118 366 38 232 -25 523 -153 711 -82 119 -248 294 -339 357 -22 15 -42 30
-45 33 -49 57 -582 339 -815 431 -27 11 -66 27 -85 35 -63 28 -114 50 -170 73
-77 31 -154 85 -169 116 -10 22 -9 31 6 54 31 49 143 113 252 146 156 46 402
59 469 25 131 -65 378 -126 575 -140 82 -6 157 -16 168 -21 10 -6 38 -12 61
-14 24 -1 88 -9 143 -16 86 -11 124 -11 274 4 171 16 253 31 441 82 152 42
200 78 233 174 14 43 17 45 58 48 135 10 261 -33 487 -166 298 -175 628 -364
742 -424 41 -22 102 -57 135 -78 102 -63 112 -65 50 -9 -33 29 -80 74 -105 98
-153 152 -403 369 -491 425 -17 10 -29 20 -27 21 2 2 131 6 288 9 157 4 364
11 460 17 96 6 220 11 275 11 l100 0 -70 13 c-100 20 -253 44 -380 61 -60 8
-126 19 -145 24 -19 5 -69 12 -110 15 -41 4 -111 13 -155 21 -332 57 -822 66
-1051 19 -21 -5 -22 -2 -20 103 1 103 0 107 -20 104 -13 -2 -31 8 -45 23 -46
49 -121 96 -222 140 -178 76 -179 77 -323 235 -43 47 -99 102 -125 123 -54 43
-177 102 -258 123 -69 18 -207 17 -286 -2z m366 -488 c30 -16 56 -32 59 -35 3
-4 37 -33 75 -66 39 -32 90 -78 115 -102 24 -23 48 -43 52 -43 4 0 8 -4 8 -8
0 -5 -19 -15 -42 -21 -24 -7 -47 -16 -53 -21 -5 -4 -37 -15 -70 -25 -33 -9
-69 -21 -80 -25 -44 -19 -140 -32 -191 -25 -90 11 -197 97 -249 199 -18 37
-22 53 -14 67 5 11 13 19 18 19 4 0 19 11 33 24 105 96 229 119 339 62z
m-4087 -2329 c79 -36 231 -166 441 -374 302 -300 434 -414 617 -539 90 -62
270 -155 368 -191 190 -70 427 -113 626 -113 125 0 506 33 583 51 25 6 93 19
151 30 355 64 643 165 825 289 22 15 56 35 75 45 19 10 61 38 92 61 85 66 84
67 119 -76 14 -54 19 -113 19 -213 0 -132 -1 -141 -33 -220 -67 -170 -162
-279 -372 -426 -107 -76 -308 -201 -323 -201 -3 0 -13 -6 -21 -14 -9 -8 -86
-54 -171 -103 -204 -117 -204 -117 -210 -123 -3 -3 -32 -23 -65 -44 -249 -163
-450 -342 -609 -540 -88 -110 -146 -190 -146 -200 0 -4 -18 -36 -40 -72 -22
-36 -40 -69 -40 -73 0 -4 -10 -27 -21 -52 -31 -63 -89 -221 -89 -241 0 -29
-15 -21 -28 15 -16 46 -119 205 -169 263 -103 120 -221 224 -366 324 -133 91
-298 186 -414 239 -71 32 -151 70 -178 84 -64 32 -100 48 -205 90 -86 35 -120
49 -177 73 -17 8 -34 14 -38 14 -23 0 -456 225 -539 279 -54 36 -106 71 -115
76 -9 6 -18 13 -21 16 -3 3 -15 12 -27 20 -45 31 -103 114 -122 175 -22 72
-57 301 -47 311 3 4 32 -11 64 -33 221 -155 501 -224 909 -224 229 0 372 17
563 68 210 57 405 150 533 256 53 43 51 48 -16 60 -55 10 -289 130 -412 211
-75 49 -232 180 -364 303 -40 37 -45 38 -86 16 -52 -27 -130 -34 -269 -23
-136 11 -332 52 -401 84 -102 48 -234 130 -268 168 -87 97 -105 208 -51 313
39 77 142 157 229 179 79 19 172 12 239 -18z"/>
<path d="M7105 6094 c-5 -1 -36 -8 -67 -14 -67 -13 -66 -10 -39 -125 11 -44
31 -134 46 -200 15 -66 44 -192 65 -280 21 -88 57 -241 80 -340 23 -99 48
-202 56 -230 7 -27 18 -81 24 -119 6 -38 13 -73 16 -77 2 -4 11 -41 18 -81 8
-40 26 -120 40 -178 14 -58 33 -141 42 -185 8 -44 24 -111 35 -150 10 -38 26
-104 35 -145 9 -41 24 -115 35 -164 11 -50 16 -93 12 -97 -5 -3 -48 -19 -98
-34 -49 -15 -99 -30 -110 -35 -11 -4 -65 -22 -120 -39 -125 -40 -317 -108
-371 -132 -22 -10 -65 -27 -95 -39 -206 -80 -701 -337 -794 -413 -12 -10 -147
-102 -240 -164 -38 -26 -72 -50 -75 -54 -3 -4 -34 -31 -70 -60 -119 -97 -334
-333 -409 -448 -39 -58 -80 -117 -91 -131 -34 -42 -176 -339 -205 -430 -29
-93 -51 -140 -64 -140 -5 0 -19 26 -31 57 -55 137 -182 319 -310 443 -218 211
-385 342 -531 415 -30 15 -65 35 -79 45 -47 33 -448 230 -468 230 -5 0 -42 14
-83 30 -62 26 -423 151 -564 196 -69 22 -295 92 -420 129 -66 20 -131 40 -145
44 -20 6 -26 18 -37 67 -6 32 -39 142 -73 244 -33 102 -74 230 -91 285 -63
211 -98 334 -114 396 -8 35 -22 80 -29 99 -8 19 -22 64 -31 100 -9 36 -25 92
-35 125 -10 33 -30 101 -44 150 -15 50 -31 104 -37 120 -6 17 -25 82 -44 145
-18 63 -38 129 -43 145 -6 17 -19 62 -31 100 -64 216 -76 254 -102 311 -23 49
-35 64 -60 73 -37 13 -76 14 -82 4 -9 -15 68 -350 87 -382 3 -5 12 -37 20 -72
8 -35 37 -138 65 -229 28 -91 61 -199 73 -240 11 -41 29 -102 39 -135 9 -33
38 -136 64 -230 26 -93 64 -228 86 -300 22 -71 58 -191 81 -265 22 -74 54
-175 70 -225 16 -49 33 -108 38 -130 12 -53 53 -173 73 -211 8 -16 26 -39 39
-51 25 -23 163 -78 268 -107 36 -10 90 -26 120 -36 30 -9 98 -30 150 -45 52
-15 136 -40 185 -55 50 -16 124 -38 165 -50 90 -26 223 -76 335 -125 17 -8 68
-30 115 -50 107 -47 133 -58 195 -85 79 -35 189 -91 205 -104 8 -7 60 -37 115
-66 108 -57 290 -177 320 -210 25 -28 10 -25 -29 5 -18 14 -38 25 -44 25 -7 0
-12 4 -12 9 0 5 -21 18 -47 30 -27 12 -61 30 -78 40 -58 34 -251 129 -345 168
-144 61 -336 124 -522 172 -62 16 -158 42 -213 56 -126 33 -189 49 -290 70
-44 9 -125 27 -180 40 -55 13 -136 31 -180 40 -202 43 -336 99 -444 186 -34
27 -65 49 -70 49 -15 0 -72 63 -111 121 -40 62 -67 151 -100 339 -43 242 -100
549 -119 640 -11 52 -23 120 -26 150 -4 30 -11 62 -16 72 -5 9 -15 54 -23 100
-41 244 -90 478 -107 516 -16 35 -23 42 -37 37 -9 -4 -53 -21 -97 -37 -44 -16
-103 -40 -132 -55 -49 -24 -52 -28 -48 -57 3 -17 14 -125 25 -241 11 -115 23
-218 26 -230 5 -20 24 -169 44 -340 6 -49 19 -151 30 -225 11 -74 24 -171 29
-215 9 -78 26 -200 56 -415 8 -58 17 -129 19 -159 13 -148 82 -394 131 -464
22 -31 157 -167 166 -167 4 0 34 -18 67 -39 67 -45 198 -103 352 -156 104 -36
613 -170 700 -185 25 -4 99 -22 165 -40 66 -17 170 -44 230 -60 528 -134 1081
-303 1181 -359 11 -6 60 -27 109 -47 50 -19 104 -44 120 -54 49 -30 144 -60
235 -76 228 -38 410 8 595 151 22 17 65 47 95 68 30 20 71 51 90 67 50 43 238
167 350 231 52 29 113 64 135 77 67 38 267 133 321 152 28 10 59 23 70 29 20
11 163 71 274 114 36 14 130 48 210 75 80 27 177 62 215 76 141 54 202 75 300
104 176 52 320 110 435 174 132 74 178 103 215 137 23 21 46 40 51 42 25 11
100 118 139 201 59 125 76 193 76 313 1 88 -5 125 -51 310 -29 116 -58 237
-65 270 -14 65 -75 313 -101 410 -22 86 -101 396 -138 545 -8 30 -26 98 -41
150 -15 52 -34 124 -41 159 -8 35 -17 67 -19 72 -3 5 -15 46 -27 91 -21 86
-44 142 -56 136 -42 -20 -81 -54 -86 -73 -9 -34 -33 -31 -56 7 l-19 31 -12
-26 c-7 -15 -17 -27 -23 -27 -33 -1 -38 -16 -21 -76 9 -32 20 -75 26 -94 15
-57 60 -259 69 -309 8 -43 43 -203 75 -336 31 -130 45 -194 65 -280 59 -262
103 -448 122 -513 29 -105 28 -204 -1 -265 -36 -74 -110 -140 -209 -188 -121
-58 -167 -78 -242 -104 -160 -55 -566 -208 -675 -253 -240 -100 -500 -214
-515 -227 -8 -6 -35 -20 -60 -29 -48 -19 -234 -121 -385 -211 -49 -30 -97 -58
-106 -62 -22 -11 -71 -50 -139 -110 -57 -51 -80 -63 -80 -44 0 10 108 130 165
182 52 48 218 183 286 232 55 41 280 182 339 213 19 11 50 30 68 42 51 37 365
194 492 246 63 26 124 51 135 56 11 6 65 26 120 46 55 20 136 50 180 66 44 16
123 43 175 59 52 17 113 37 135 45 23 8 47 14 55 14 7 0 44 14 82 32 46 21 70
38 74 52 2 12 -2 53 -10 91 -8 39 -33 156 -56 260 -22 105 -48 226 -56 270
-14 78 -46 224 -64 295 -5 19 -15 60 -21 90 -7 30 -25 107 -41 170 -17 63 -36
144 -43 180 -20 96 -62 279 -75 325 -7 22 -22 90 -35 150 -24 112 -44 196 -71
295 -8 30 -21 87 -29 125 -8 39 -20 90 -26 115 -6 25 -14 57 -18 71 -3 14 -10
25 -16 23z"/>
<path d="M10080 80 l0 -80 80 0 80 0 0 80 0 80 -80 0 -80 0 0 -80z"/>
</g>
</svg>
